Coordinates
version=1
nRows=14
nColumns=24
inDegrees=yes

Units are S.I. units (second, meters, Newtons, ...)
Angles are in degrees.

endheader
time	pelvis_tilt	pelvis_list	pelvis_rotation	pelvis_tx	pelvis_ty	pelvis_tz	hip_flexion_r	hip_adduction_r	hip_rotation_r	knee_angle_r	ankle_angle_r	subtalar_angle_r	mtp_angle_r	hip_flexion_l	hip_adduction_l	hip_rotation_l	knee_angle_l	ankle_angle_l	subtalar_angle_l	mtp_angle_l	lumbar_extension	lumbar_bending	lumbar_rotation
      4.11000000	    -17.37554845	      3.89720575	    -10.14042310	     -1.21130369	     -0.04454497	     -0.33878812	     -1.25768061	     -2.68369159	      1.97617122	    -17.59366484	      8.98060555	      3.00482498	      4.45513186	     44.95633331	     -5.07472639	    -18.78005863	    -13.86948506	     -4.95649029	      6.90967761	     21.91118336	     21.14936128	     -2.12873505	      1.74101887
      4.11500000	    -17.34482215	      4.15624082	    -10.06836533	     -1.20283101	     -0.04507777	     -0.33957932	     -1.28383654	     -3.18280659	      1.62881543	    -18.41838570	      8.06487695	      3.35129788	      5.31434311	     44.93901665	     -4.71934926	    -18.53969802	    -14.59847813	     -5.74987112	      5.89505573	     21.84214245	     21.35083114	     -2.40048756	      1.59799042
      4.12000000	    -17.36140910	      4.51775416	    -10.14162866	     -1.19433976	     -0.04548206	     -0.34004589	     -1.16361182	     -3.73398918	      1.65080965	    -19.34736444	      7.04348297	      3.38524927	      5.62449294	     44.92661130	     -4.41165043	    -18.51415706	    -15.28955875	     -6.61461579	      4.96692705	     21.63654862	     21.64417358	     -2.72548714	      1.69437286
      4.12500000	    -17.38440801	      4.78180094	    -10.04146236	     -1.18593547	     -0.04587638	     -0.34096944	     -0.99529829	     -4.25159710	      1.15711328	    -20.34212807	      5.91167788	      3.73726073	      6.78736582	     44.97137226	     -4.01151071	    -18.08707289	    -16.01085544	     -7.58179025	      3.65965949	     21.29577669	     21.88815006	     -2.99009378	      1.61390003
      4.13000000	    -17.45061249	      5.17003088	     -9.92962624	     -1.17729944	     -0.04615061	     -0.34176653	     -0.77115776	     -4.86992321	      0.82320081	    -21.27102416	      4.52726662	      3.67405366	      8.72247154	     45.02879443	     -3.51647844	    -17.79166002	    -16.69882153	     -8.51736697	      2.50997450	     20.68230109	     22.24604761	     -3.38659868	      1.55558560
      4.13500000	    -17.48636276	      5.55070493	     -9.91137409	     -1.16888071	     -0.04628300	     -0.34246976	     -0.45625557	     -5.47010847	      0.64680348	    -22.34942966	      3.06389631	      3.51165463	     10.42090056	     45.06052244	     -3.08172437	    -17.46768934	    -17.41500352	     -9.35534481	      1.33341003	     19.84759801	     22.54020016	     -3.74725162	      1.59549385
      4.14000000	    -17.54180724	      5.89488259	     -9.89940004	     -1.16049332	     -0.04634445	     -0.34325263	     -0.04822836	     -6.03413620	      0.50312021	    -23.55624420	      1.53365897	      3.53407622	     11.18004684	     45.11240003	     -2.65757146	    -17.04238597	    -18.12756836	    -10.10144442	     -0.04269887	     19.17115085	     22.84524597	     -4.04932000	      1.63143280
      4.14500000	    -17.65219133	      6.30579745	     -9.70452577	     -1.15191189	     -0.04641251	     -0.34420294	      0.40438103	     -6.68166117	      0.10474242	    -24.68947679	     -0.23740333	      3.26131084	     13.41270826	     45.24435000	     -2.04676466	    -16.50734176	    -18.90898873	    -10.63144678	     -1.15857857	     17.75338885	     23.23710737	     -4.48762100	      1.46667679
      4.15000000	    -17.62618482	      6.69235223	     -9.72185581	     -1.14362143	     -0.04619242	     -0.34487874	      0.85076283	     -7.28095642	      0.07905024	    -25.91426623	     -2.19526968	      2.68164099	     15.78519072	     45.20605142	     -1.57546656	    -16.04618803	    -19.69848686	    -10.91017507	     -2.15704754	     16.23512781	     23.45073728	     -4.84860311	      1.57554566
      4.15500000	    -17.72177404	      7.08805594	     -9.56115889	     -1.13521924	     -0.04612219	     -0.34580951	      1.46183836	     -7.90076238	     -0.19511787	    -27.27480968	     -4.15110737	      2.33576471	     17.21182468	     45.30251677	     -0.96790677	    -15.45736867	    -20.46511205	    -11.12717948	     -3.27139437	     15.08348864	     23.79651118	     -5.25399229	      1.48185557
      4.16000000	    -17.75426768	      7.46970776	     -9.47256542	     -1.12696469	     -0.04589304	     -0.34665333	      2.08722040	     -8.49312111	     -0.30005444	    -28.65690336	     -6.30207942	      1.70500039	     19.26735850	     45.32076129	     -0.40137714	    -14.90911557	    -21.26860339	    -11.07855015	     -4.17763030	     13.49401991	     24.05541546	     -5.63044735	      1.47988325
      4.16500000	    -17.74182098	      7.83249949	     -9.40046259	     -1.11879627	     -0.04557004	     -0.34743528	      2.72722189	     -9.04966016	     -0.31396523	    -30.08925465	     -8.56242323	      0.93757946	     21.24588813	     45.27060797	      0.14547683	    -14.42437225	    -22.05967961	    -10.83836661	     -4.91513267	     11.98611973	     24.25112691	     -5.99642950	      1.49459626
      4.17000000	    -17.71026060	      8.18574522	     -9.32724584	     -1.11070003	     -0.04518754	     -0.34818631	      3.40669999	     -9.57825652	     -0.26535250	    -31.57603595	    -10.89745971	      0.06766985	     23.08084019	     45.17490393	      0.68815201	    -14.00269982	    -22.82289722	    -10.44826187	     -5.50747563	     10.55577562	     24.41412104	     -6.35868361	      1.50970322
      4.17500000	    -17.66598497	      8.52760781	     -9.25485446	     -1.10271125	     -0.04476589	     -0.34889910	      4.13535928	    -10.07389736	     -0.16009280	    -33.12532935	    -13.25600499	     -0.86622506	     24.66106581	     45.03813637	      1.22062030	    -13.65157812	    -23.54307268	     -9.95097271	     -5.99508841	      9.26205214	     24.54322826	     -6.71950195	      1.52143577
